<svg xmlns="http://www.w3.org/2000/svg" width="215.92" height="41.67" viewBox="0 0 215.92 41.67">
  <title>oneview-logo-svg</title>
  <g id="Layer_2" data-name="Layer 2">
    <g id="Layer_1-2" data-name="Layer 1">
      <g>
        <polygon points="117.17 15.47 112.94 15.47 112.94 41.04 113.48 41.04 117.17 41.04 117.17 15.47" fill="#fff"></polygon>
        <path d="M143.62,19.79h0a12.62,12.62,0,0,0-10.43-5,12.25,12.25,0,0,0-10.14,4.84,13.63,13.63,0,0,0-3,8.64,13.77,13.77,0,0,0,3.51,9.23,12.24,12.24,0,0,0,9.78,4.11,13.94,13.94,0,0,0,5-.86,12.57,12.57,0,0,0,4-2.5,15.07,15.07,0,0,0,3.13-4.3l.24-.47-3.58-1.88-.26.44a14.28,14.28,0,0,1-2.58,3.35,9,9,0,0,1-2.84,1.63,9.86,9.86,0,0,1-3.45.62A8.15,8.15,0,0,1,127,35.13,9.29,9.29,0,0,1,124.46,29h22V28.5A13.81,13.81,0,0,0,143.62,19.79Zm-18.69,5.45a9.49,9.49,0,0,1,2.47-4.13,8.44,8.44,0,0,1,5.84-2.18,9.25,9.25,0,0,1,3.94.87,8.22,8.22,0,0,1,3,2.28,9.57,9.57,0,0,1,1.51,3.16Z" fill="#fff"></path>
        <polygon points="157.34 41.04 157.69 41.04 165.17 24.29 172.65 41.04 173.59 41.04 173.94 41.04 185.04 15.47 180.59 15.47 180.45 15.8 173.29 32.45 165.78 15.47 164.85 15.47 164.5 15.47 157.05 32.44 149.89 15.47 145.47 15.47 156.4 41.04 157.34 41.04" fill="#fff"></polygon>
        <polygon points="94.76 33.53 98.15 40.9 98.97 40.9 110.6 15.51 105.88 15.51 98.57 31.58 96.94 28.05 94.46 22.65 91.16 15.47 86.44 15.47 92.28 28.15 94.76 33.53" fill="#fff"></polygon>
        <path d="M80.83,12.18c.15.09.3.2.44.3.24-.08,14-4.5,22.69-6.17a152.13,152.13,0,0,1,29.9-2.87c20.08-.34,39.47,4.9,57.8,12.69,7.32,3.11,14.48,6.62,21.44,10.35-22.61-16-50.87-24.25-74.78-26A133.73,133.73,0,0,0,96.2,3.62c-4,.84-7.94,1.85-11.86,3-3,.85-6.32,1.83-9.25,2.77A29.74,29.74,0,0,1,80.83,12.18Z" fill="#fff"></path>
        <path d="M70.5,41.67a14,14,0,0,0,5-.86,12.56,12.56,0,0,0,4-2.5A15,15,0,0,0,82.69,34l.24-.47-3.57-1.88-.26.44a14.24,14.24,0,0,1-2.57,3.35,9,9,0,0,1-2.84,1.63,9.86,9.86,0,0,1-3.45.62,8.16,8.16,0,0,1-6.13-2.57A9.3,9.3,0,0,1,61.58,29h22V28.5a13.8,13.8,0,0,0-2.82-8.7,12.62,12.62,0,0,0-10.43-5,12.26,12.26,0,0,0-10.14,4.84,13.63,13.63,0,0,0-3,8.64,13.78,13.78,0,0,0,3.51,9.23A12.24,12.24,0,0,0,70.5,41.67Zm-6-20.56a8.44,8.44,0,0,1,5.84-2.18,9.25,9.25,0,0,1,3.94.87,8.2,8.2,0,0,1,3,2.28,9.54,9.54,0,0,1,1.51,3.16H62.05A9.48,9.48,0,0,1,64.52,21.11Z" fill="#fff"></path>
        <path d="M215.13,28.9c1.05-.55,1.06-1.1,0-1.64Q213.55,28.09,215.13,28.9Z" fill="#fff"></path>
        <path d="M15.34,41.67a14.42,14.42,0,0,0,11-4.61,15.3,15.3,0,0,0,4.28-10.75,15.3,15.3,0,0,0-4.05-10.6,14.59,14.59,0,0,0-11.26-4.92A14.57,14.57,0,0,0,4.05,15.73,15.27,15.27,0,0,0,0,26.31,15.31,15.31,0,0,0,4.28,37.06,14.45,14.45,0,0,0,15.34,41.67ZM8,18.73a9.86,9.86,0,0,1,7.33-3.16,9.86,9.86,0,0,1,7.32,3.16,10.53,10.53,0,0,1,3.09,7.65,10.85,10.85,0,0,1-1.4,5.4,9.86,9.86,0,0,1-3.77,3.85A10.34,10.34,0,0,1,15.33,37a10.35,10.35,0,0,1-5.23-1.36,9.85,9.85,0,0,1-3.77-3.85,10.85,10.85,0,0,1-1.4-5.4A10.55,10.55,0,0,1,8,18.73Z" fill="#fff"></path>
        <path d="M37.24,31.53A32.31,32.31,0,0,1,37.67,25h0a8.31,8.31,0,0,1,2.81-4.4,7.22,7.22,0,0,1,4.78-1.77A5.81,5.81,0,0,1,49,19.93a5.67,5.67,0,0,1,1.91,3.35h0a28.55,28.55,0,0,1,.33,5.52V41h4.23V27.9a20.32,20.32,0,0,0-1.06-7.57,8.84,8.84,0,0,0-3.34-4,9.24,9.24,0,0,0-5.17-1.48,10.81,10.81,0,0,0-5.26,1.32,12.76,12.76,0,0,0-3.39,2.74V15.48H33V41h4.23Z" fill="#fff"></path>
        <path d="M209.95,30.23a227.78,227.78,0,0,1-21.73,10.33h4.17A114.37,114.37,0,0,0,209.95,30.23Z" fill="#fff"></path>
      </g>
    </g>
  </g>
</svg>